# xmcd
#
# Track frame offsets:
#	150
#	7066
#	12378
#	17408
#	22481
#	27654
#	35079
#	40044
#	45283
#	49409
#	54481
#	59759
#	67137
#	74583
#	77366
#	84985
#	93555
#	104453
#	109381
#	114708
#	118994
#	122832
#	129321
#	136136
#	142331
#	149130
#	155133
#
# Disc length: 2137 seconds
#
# Revision: 1
# Processed by: cddbd v1.5.2PL0 Copyright (c) Steve Scherf et al.
# Submitted via: EasyCDDAExtractor 6.5.0.1
#
DISCID=a308571b
DTITLE=Warum ist es am Rhein so schön - Golden Sound
DYEAR=2004
DGENRE=Vocal
TTITLE0=Einmal am Rhein
TTITLE1=Gib acht auf den Jahrgang
TTITLE2=Lore leih mir dein Herz
TTITLE3=Kleine Winzerin vom Rhein
TTITLE4=Rheinlandmödel
TTITLE5=Zu Rüdesheim in der Drosselgass
TTITLE6=Trink Brüderlein trink
TTITLE7=Wenn das Wasser im Rhein
TTITLE8=Nur einmal blüht im Jahr der Mai
TTITLE9=Ich hab den Vater Rhein in seinen Bett gesehn
TTITLE10=Die Liebe ist Schuld dran
TTITLE11=Der treue Husar
TTITLE12=Ajujah
TTITLE13=Aber heut sind wir fidel
TTITLE14=Biertrinker-Marsch
TTITLE15=Rosamunde
TTITLE16=In München steht ein Hofbräuhaus
TTITLE17=Es gibt kein Bier auf Hawaii
TTITLE18=Ich hab mein Herz in Heidelberg verloren
TTITLE19=Du liegst mir im Herzen
TTITLE20=Hochdroben auf dem berg
TTITLE21=Die lustigen Holzhackerbuam
TTITLE22=Lore
TTITLE23=Solange der alte Peter
TTITLE24=Schützenliesl
TTITLE25=Du bist die Rose vom Woerthersee
TTITLE26=Auf Wiedersehn
EXTD=
EXTT0=
EXTT1=
EXTT2=
EXTT3=
EXTT4=
EXTT5=
EXTT6=
EXTT7=
EXTT8=
EXTT9=
EXTT10=
EXTT11=
EXTT12=
EXTT13=
EXTT14=
EXTT15=
EXTT16=
EXTT17=
EXTT18=
EXTT19=
EXTT20=
EXTT21=
EXTT22=
EXTT23=
EXTT24=
EXTT25=
EXTT26=
PLAYORDER=
